# xmcd
#
# Track frame offsets: 
#        150
#        15680
#        32946
#        47028
#        60653
#        75969
#
# Disc length: 1176 seconds
#
# Revision: 1
# Processed by: cddbd v1.5.2PL0 Copyright (c) Steve Scherf et al.
# Submitted via: ExactAudioCopy v1.1
#
DISCID=40049606
DTITLE=Bebe Rexha - All Your Fault Pt. 2
DYEAR=2017
DGENRE=Pop
TTITLE0=That's It (Feat. Gucci Mane and 2 Chainz)
TTITLE1=I Got Time
TTITLE2=The Way I Are (Dance With Somebody) (Feat. Lil Wayne)
TTITLE3=(Not) The One
TTITLE4=Comfortable (Feat. Kranium)
TTITLE5=Meant To Be (Bebe Rexhe And Florida Georgia Line)
EXTD=
EXTT0=
EXTT1=
EXTT2=
EXTT3=
EXTT4=
EXTT5=
PLAYORDER=
